<svg xmlns:xlink="http://www.w3.org/1999/xlink" version="1.1" xmlns="http://www.w3.org/2000/svg" width="600" height="275">
    <desc>Created with Highstock 1.3.7</desc>
    <defs>
        <linearGradient x1="1" y1="0" x2="0" y2="0" id="highcharts-25">
            <stop offset="0" stop-color="#d73027" stop-opacity="1"></stop>
            <stop offset="1" stop-color="#b10a01" stop-opacity="1"></stop>
        </linearGradient>
        <linearGradient x1="1" y1="0" x2="0" y2="0" id="highcharts-26">
            <stop offset="0" stop-color="#EA590B" stop-opacity="1"></stop>
            <stop offset="1" stop-color="#c43300" stop-opacity="1"></stop>
        </linearGradient>
        <linearGradient x1="1" y1="0" x2="0" y2="0" id="highcharts-27">
            <stop offset="0" stop-color="#005e75" stop-opacity="1"></stop>
            <stop offset="1" stop-color="#00384f" stop-opacity="1"></stop>
        </linearGradient>
        <linearGradient x1="1" y1="0" x2="0" y2="0" id="highcharts-28">
            <stop offset="0" stop-color="#841F30" stop-opacity="1"></stop>
            <stop offset="1" stop-color="#5e000a" stop-opacity="1"></stop>
        </linearGradient>
        <clipPath id="highcharts-29">
            <rect fill="none" x="0" y="0" width="530" height="180"></rect>
        </clipPath>
    </defs>
    <rect rx="5" ry="5" fill="#FFFFFF" x="0" y="0" width="600" height="275"></rect>
    <g class="highcharts-grid"></g>
    <g class="highcharts-grid">
        <path fill="none" d="M 70 160.5 L 600 160.5" stroke="#C0C0C0" stroke-width="1" opacity="1"></path>
        <path fill="none" d="M 70 115.5 L 600 115.5" stroke="#C0C0C0" stroke-width="1" opacity="1"></path>
        <path fill="none" d="M 70 70.5 L 600 70.5" stroke="#C0C0C0" stroke-width="1" opacity="1"></path>
        <path fill="none" d="M 70 24.5 L 600 24.5" stroke="#C0C0C0" stroke-width="1" opacity="1"></path>
        <path fill="none" d="M 70 205.5 L 600 205.5" stroke="#C0C0C0" stroke-width="1" opacity="1"></path>
    </g>
    <g class="highcharts-axis">
        <path fill="none" d="M 422.5 205 L 422.5 210" stroke="#C0D0E0" stroke-width="1" opacity="1"></path>
        <path fill="none" d="M 600.5 205 L 600.5 210" stroke="#C0D0E0" stroke-width="1" opacity="1"></path>
        <path fill="none" d="M 246.5 205 L 246.5 210" stroke="#C0D0E0" stroke-width="1" opacity="1"></path>
        <path fill="none" d="M 69.5 205 L 69.5 210" stroke="#C0D0E0" stroke-width="1"></path>
        <path fill="none" d="M 70 205.5 L 600 205.5" stroke="#C0D0E0" stroke-width="1" visibility="visible"></path>
    </g>
    <g class="highcharts-axis"></g>
    <g class="highcharts-series-group">
        <g class="highcharts-series highcharts-tracker" visibility="visible" transform="translate(70,25) scale(1 1)" style="cursor:pointer;"
           clip-path="url(#highcharts-29)">
            <rect fill="none" x="21" y="53" width="29" height="83" rx="1.5" ry="1.5" stroke="#777777" stroke-opacity="0.06666666666666667" stroke-width="5"
                  transform="translate(1, 1)"></rect>
            <rect fill="none" x="21" y="53" width="29" height="83" rx="1.5" ry="1.5" stroke="#777777" stroke-opacity="0.13333333333333333" stroke-width="3"
                  transform="translate(1, 1)"></rect>
            <rect fill="none" x="21" y="53" width="29" height="83" rx="1.5" ry="1.5" stroke="#777777" stroke-opacity="0.2" stroke-width="1"
                  transform="translate(1, 1)"></rect>
            <rect fill="url(#highcharts-25)" x="21" y="53" width="29" height="83" rx="1.5" ry="1.5"></rect>
            <rect fill="none" x="198" y="113" width="29" height="23" rx="1.5" ry="1.5" stroke="#777777" stroke-opacity="0.06666666666666667" stroke-width="5"
                  transform="translate(1, 1)"></rect>
            <rect fill="none" x="198" y="113" width="29" height="23" rx="1.5" ry="1.5" stroke="#777777" stroke-opacity="0.13333333333333333" stroke-width="3"
                  transform="translate(1, 1)"></rect>
            <rect fill="none" x="198" y="113" width="29" height="23" rx="1.5" ry="1.5" stroke="#777777" stroke-opacity="0.2" stroke-width="1"
                  transform="translate(1, 1)"></rect>
            <rect fill="url(#highcharts-25)" x="198" y="113" width="29" height="23" rx="1.5" ry="1.5"></rect>
            <rect fill="none" x="375" y="136" width="29" height="7" rx="1.5" ry="1.5" stroke="#777777" stroke-opacity="0.06666666666666667" stroke-width="5"
                  transform="translate(1, 1)"></rect>
            <rect fill="none" x="375" y="136" width="29" height="7" rx="1.5" ry="1.5" stroke="#777777" stroke-opacity="0.13333333333333333" stroke-width="3"
                  transform="translate(1, 1)"></rect>
            <rect fill="none" x="375" y="136" width="29" height="7" rx="1.5" ry="1.5" stroke="#777777" stroke-opacity="0.2" stroke-width="1"
                  transform="translate(1, 1)"></rect>
            <rect fill="url(#highcharts-25)" x="375" y="136" width="29" height="7" rx="1.5" ry="1.5"></rect>
        </g>
        <g class="highcharts-markers" visibility="visible" transform="translate(70,25) scale(1 1)" clip-path="none"></g>
        <g class="highcharts-series highcharts-tracker" visibility="visible" transform="translate(70,25) scale(1 1)" style="cursor:pointer;"
           clip-path="url(#highcharts-29)">
            <rect fill="none" x="57" y="136" width="29" height="18" rx="1.5" ry="1.5" stroke="#777777" stroke-opacity="0.06666666666666667" stroke-width="5"
                  transform="translate(1, 1)"></rect>
            <rect fill="none" x="57" y="136" width="29" height="18" rx="1.5" ry="1.5" stroke="#777777" stroke-opacity="0.13333333333333333" stroke-width="3"
                  transform="translate(1, 1)"></rect>
            <rect fill="none" x="57" y="136" width="29" height="18" rx="1.5" ry="1.5" stroke="#777777" stroke-opacity="0.2" stroke-width="1"
                  transform="translate(1, 1)"></rect>
            <rect fill="url(#highcharts-26)" x="57" y="136" width="29" height="18" rx="1.5" ry="1.5"></rect>
            <rect fill="none" x="233" y="136" width="29" height="36" rx="1.5" ry="1.5" stroke="#777777" stroke-opacity="0.06666666666666667" stroke-width="5"
                  transform="translate(1, 1)"></rect>
            <rect fill="none" x="233" y="136" width="29" height="36" rx="1.5" ry="1.5" stroke="#777777" stroke-opacity="0.13333333333333333" stroke-width="3"
                  transform="translate(1, 1)"></rect>
            <rect fill="none" x="233" y="136" width="29" height="36" rx="1.5" ry="1.5" stroke="#777777" stroke-opacity="0.2" stroke-width="1"
                  transform="translate(1, 1)"></rect>
            <rect fill="url(#highcharts-26)" x="233" y="136" width="29" height="36" rx="1.5" ry="1.5"></rect>
            <rect fill="none" x="410" y="136" width="29" height="0" rx="1.5" ry="1.5" stroke="#777777" stroke-opacity="0.06666666666666667" stroke-width="5"
                  transform="translate(1, 1)"></rect>
            <rect fill="none" x="410" y="136" width="29" height="0" rx="1.5" ry="1.5" stroke="#777777" stroke-opacity="0.13333333333333333" stroke-width="3"
                  transform="translate(1, 1)"></rect>
            <rect fill="none" x="410" y="136" width="29" height="0" rx="1.5" ry="1.5" stroke="#777777" stroke-opacity="0.2" stroke-width="1"
                  transform="translate(1, 1)"></rect>
            <rect fill="url(#highcharts-26)" x="410" y="136" width="29" height="0" rx="1.5" ry="1.5"></rect>
        </g>
        <g class="highcharts-markers" visibility="visible" transform="translate(70,25) scale(1 1)" clip-path="none"></g>
        <g class="highcharts-series highcharts-tracker" visibility="visible" transform="translate(70,25) scale(1 1)" style="cursor:pointer;"
           clip-path="url(#highcharts-29)">
            <rect fill="none" x="92" y="35" width="29" height="101" rx="1.5" ry="1.5" stroke="#777777" stroke-opacity="0.06666666666666667" stroke-width="5"
                  transform="translate(1, 1)"></rect>
            <rect fill="none" x="92" y="35" width="29" height="101" rx="1.5" ry="1.5" stroke="#777777" stroke-opacity="0.13333333333333333" stroke-width="3"
                  transform="translate(1, 1)"></rect>
            <rect fill="none" x="92" y="35" width="29" height="101" rx="1.5" ry="1.5" stroke="#777777" stroke-opacity="0.2" stroke-width="1"
                  transform="translate(1, 1)"></rect>
            <rect fill="url(#highcharts-27)" x="92" y="35" width="29" height="101" rx="1.5" ry="1.5"></rect>
            <rect fill="none" x="269" y="75" width="29" height="61" rx="1.5" ry="1.5" stroke="#777777" stroke-opacity="0.06666666666666667" stroke-width="5"
                  transform="translate(1, 1)"></rect>
            <rect fill="none" x="269" y="75" width="29" height="61" rx="1.5" ry="1.5" stroke="#777777" stroke-opacity="0.13333333333333333" stroke-width="3"
                  transform="translate(1, 1)"></rect>
            <rect fill="none" x="269" y="75" width="29" height="61" rx="1.5" ry="1.5" stroke="#777777" stroke-opacity="0.2" stroke-width="1"
                  transform="translate(1, 1)"></rect>
            <rect fill="url(#highcharts-27)" x="269" y="75" width="29" height="61" rx="1.5" ry="1.5"></rect>
            <rect fill="none" x="445" y="128" width="29" height="8" rx="1.5" ry="1.5" stroke="#777777" stroke-opacity="0.06666666666666667" stroke-width="5"
                  transform="translate(1, 1)"></rect>
            <rect fill="none" x="445" y="128" width="29" height="8" rx="1.5" ry="1.5" stroke="#777777" stroke-opacity="0.13333333333333333" stroke-width="3"
                  transform="translate(1, 1)"></rect>
            <rect fill="none" x="445" y="128" width="29" height="8" rx="1.5" ry="1.5" stroke="#777777" stroke-opacity="0.2" stroke-width="1"
                  transform="translate(1, 1)"></rect>
            <rect fill="url(#highcharts-27)" x="445" y="128" width="29" height="8" rx="1.5" ry="1.5"></rect>
        </g>
        <g class="highcharts-markers" visibility="visible" transform="translate(70,25) scale(1 1)" clip-path="none"></g>
        <g class="highcharts-series highcharts-tracker" visibility="visible" transform="translate(70,25) scale(1 1)" style="cursor:pointer;"
           clip-path="url(#highcharts-29)">
            <rect fill="none" x="127" y="134" width="29" height="2" rx="1.5" ry="1.5" stroke="#777777" stroke-opacity="0.06666666666666667" stroke-width="5"
                  transform="translate(1, 1)"></rect>
            <rect fill="none" x="127" y="134" width="29" height="2" rx="1.5" ry="1.5" stroke="#777777" stroke-opacity="0.13333333333333333" stroke-width="3"
                  transform="translate(1, 1)"></rect>
            <rect fill="none" x="127" y="134" width="29" height="2" rx="1.5" ry="1.5" stroke="#777777" stroke-opacity="0.2" stroke-width="1"
                  transform="translate(1, 1)"></rect>
            <rect fill="url(#highcharts-28)" x="127" y="134" width="29" height="2" rx="1.5" ry="1.5"></rect>
            <rect fill="none" x="304" y="136" width="29" height="7" rx="1.5" ry="1.5" stroke="#777777" stroke-opacity="0.06666666666666667" stroke-width="5"
                  transform="translate(1, 1)"></rect>
            <rect fill="none" x="304" y="136" width="29" height="7" rx="1.5" ry="1.5" stroke="#777777" stroke-opacity="0.13333333333333333" stroke-width="3"
                  transform="translate(1, 1)"></rect>
            <rect fill="none" x="304" y="136" width="29" height="7" rx="1.5" ry="1.5" stroke="#777777" stroke-opacity="0.2" stroke-width="1"
                  transform="translate(1, 1)"></rect>
            <rect fill="url(#highcharts-28)" x="304" y="136" width="29" height="7" rx="1.5" ry="1.5"></rect>
            <rect fill="none" x="481" y="136" width="29" height="0" rx="1.5" ry="1.5" stroke="#777777" stroke-opacity="0.06666666666666667" stroke-width="5"
                  transform="translate(1, 1)"></rect>
            <rect fill="none" x="481" y="136" width="29" height="0" rx="1.5" ry="1.5" stroke="#777777" stroke-opacity="0.13333333333333333" stroke-width="3"
                  transform="translate(1, 1)"></rect>
            <rect fill="none" x="481" y="136" width="29" height="0" rx="1.5" ry="1.5" stroke="#777777" stroke-opacity="0.2" stroke-width="1"
                  transform="translate(1, 1)"></rect>
            <rect fill="url(#highcharts-28)" x="481" y="136" width="29" height="0" rx="1.5" ry="1.5"></rect>
        </g>
        <g class="highcharts-markers" visibility="visible" transform="translate(70,25) scale(1 1)" clip-path="none"></g>
    </g>
    <g class="highcharts-legend" transform="translate(77,231)">
        <rect rx="5" ry="5" fill="none" x="0.5" y="0.5" width="434" height="28" stroke="black" stroke-width="5" stroke-opacity="0.049999999999999996"
              transform="translate(1, 1)" visibility="visible"></rect>
        <rect rx="5" ry="5" fill="none" x="0.5" y="0.5" width="434" height="28" stroke="black" stroke-width="3" stroke-opacity="0.09999999999999999"
              transform="translate(1, 1)" visibility="visible"></rect>
        <rect rx="5" ry="5" fill="none" x="0.5" y="0.5" width="434" height="28" stroke="black" stroke-width="1" stroke-opacity="0.15"
              transform="translate(1, 1)" visibility="visible"></rect>
        <rect rx="5" ry="5" fill="#FFFFFF" x="0.5" y="0.5" width="434" height="28" stroke="#909090" stroke-width="1" visibility="visible"></rect>
        <g>
            <g>
                <g class="highcharts-legend-item" transform="translate(8,3)">
                    <text x="21" y="15"
                          style="font-family:'lucida grande', 'lucida sans unicode', verdana, arial, helvetica, sans-serif;font-size:12px;cursor:pointer;color:#274b6d;fill:#274b6d;"
                          text-anchor="start">
                        <tspan x="21">Excess Return</tspan>
                    </text>
                    <rect rx="2" ry="2" fill="url(#highcharts-25)" x="0" y="4" width="16" height="12"></rect>
                </g>
                <g class="highcharts-legend-item" transform="translate(118.296875,3)">
                    <text x="21" y="15"
                          style="font-family:'lucida grande', 'lucida sans unicode', verdana, arial, helvetica, sans-serif;font-size:12px;cursor:pointer;color:#274b6d;fill:#274b6d;"
                          text-anchor="start">
                        <tspan x="21">Local Allocation</tspan>
                    </text>
                    <rect rx="2" ry="2" fill="url(#highcharts-26)" x="0" y="4" width="16" height="12"></rect>
                </g>
                <g class="highcharts-legend-item" transform="translate(239.25,3)">
                    <text x="21" y="15"
                          style="font-family:'lucida grande', 'lucida sans unicode', verdana, arial, helvetica, sans-serif;font-size:12px;cursor:pointer;color:#274b6d;fill:#274b6d;"
                          text-anchor="start">
                        <tspan x="21">Local Selection</tspan>
                    </text>
                    <rect rx="2" ry="2" fill="url(#highcharts-27)" x="0" y="4" width="16" height="12"></rect>
                </g>
                <g class="highcharts-legend-item" transform="translate(354.296875,3)">
                    <text x="21" y="15"
                          style="font-family:'lucida grande', 'lucida sans unicode', verdana, arial, helvetica, sans-serif;font-size:12px;cursor:pointer;color:#274b6d;fill:#274b6d;"
                          text-anchor="start">
                        <tspan x="21">Currency</tspan>
                    </text>
                    <rect rx="2" ry="2" fill="url(#highcharts-28)" x="0" y="4" width="16" height="12"></rect>
                </g>
            </g>
        </g>
    </g>
    <g class="highcharts-axis-labels">
        <text x="158.33333333333331" y="219"
              style="font-family:'lucida grande', 'lucida sans unicode', verdana, arial, helvetica, sans-serif;font-size:11px;color:#666;cursor:default;line-height:14px;fill:#666;"
              text-anchor="middle" opacity="1">
            <tspan x="158.33333333333331">Northern America</tspan>
        </text>
        <text x="335" y="219"
              style="font-family:'lucida grande', 'lucida sans unicode', verdana, arial, helvetica, sans-serif;font-size:11px;color:#666;cursor:default;line-height:14px;fill:#666;"
              text-anchor="middle" opacity="1">
            <tspan x="335">Europe</tspan>
        </text>
        <text x="511.6666666666667" y="219"
              style="font-family:'lucida grande', 'lucida sans unicode', verdana, arial, helvetica, sans-serif;font-size:11px;color:#666;cursor:default;line-height:14px;fill:#666;"
              text-anchor="middle" opacity="1">
            <tspan x="511.6666666666667">Asia-Pacific</tspan>
        </text>
    </g>
    <g class="highcharts-axis-labels">
        <text x="62" y="208.5"
              style="font-family:'lucida grande', 'lucida sans unicode', verdana, arial, helvetica, sans-serif;font-size:11px;color:#666;cursor:default;line-height:14px;fill:#666;"
              text-anchor="end" opacity="1">
            <tspan x="62">-0.25 %</tspan>
        </text>
        <text x="62" y="163.5"
              style="font-family:'lucida grande', 'lucida sans unicode', verdana, arial, helvetica, sans-serif;font-size:11px;color:#666;cursor:default;line-height:14px;fill:#666;"
              text-anchor="end" opacity="1">
            <tspan x="62">0.00 %</tspan>
        </text>
        <text x="62" y="118.5"
              style="font-family:'lucida grande', 'lucida sans unicode', verdana, arial, helvetica, sans-serif;font-size:11px;color:#666;cursor:default;line-height:14px;fill:#666;"
              text-anchor="end" opacity="1">
            <tspan x="62">0.25 %</tspan>
        </text>
        <text x="62" y="73.5"
              style="font-family:'lucida grande', 'lucida sans unicode', verdana, arial, helvetica, sans-serif;font-size:11px;color:#666;cursor:default;line-height:14px;fill:#666;"
              text-anchor="end" opacity="1">
            <tspan x="62">0.50 %</tspan>
        </text>
        <text x="62" y="28.5"
              style="font-family:'lucida grande', 'lucida sans unicode', verdana, arial, helvetica, sans-serif;font-size:11px;color:#666;cursor:default;line-height:14px;fill:#666;"
              text-anchor="end" opacity="1">
            <tspan x="62">0.75 %</tspan>
        </text>
    </g>
    <g class="highcharts-tooltip" style="cursor:default;padding:0;white-space:nowrap;" transform="translate(0,-999)">
        <rect rx="3" ry="3" fill="none" x="0.5" y="0.5" width="16" height="16" fill-opacity="0.85" stroke="black" stroke-opacity="0.049999999999999996"
              stroke-width="5" transform="translate(1, 1)"></rect>
        <rect rx="3" ry="3" fill="none" x="0.5" y="0.5" width="16" height="16" fill-opacity="0.85" stroke="black" stroke-opacity="0.09999999999999999"
              stroke-width="3" transform="translate(1, 1)"></rect>
        <rect rx="3" ry="3" fill="none" x="0.5" y="0.5" width="16" height="16" fill-opacity="0.85" stroke="black" stroke-opacity="0.15" stroke-width="1"
              transform="translate(1, 1)"></rect>
        <rect rx="3" ry="3" fill="rgb(255,255,255)" x="0.5" y="0.5" width="16" height="16" fill-opacity="0.85"></rect>
        <text x="8" y="21"
              style="font-family:'lucida grande', 'lucida sans unicode', verdana, arial, helvetica, sans-serif;font-size:12px;color:#333333;fill:#333333;"></text>
    </g>
</svg>